<?xml version="1.0" encoding="UTF-8" standalone="no"?>
<!DOCTYPE svg PUBLIC "-//W3C//DTD SVG 1.1//EN"
 "http://www.w3.org/Graphics/SVG/1.1/DTD/svg11.dtd">
<!-- Generated by graphviz version 2.38.0 (20140413.2041)
 -->
<!-- Title: G Pages: 1 -->
<svg width="314pt" height="404pt"
 viewBox="0.00 0.00 313.51 404.00" xmlns="http://www.w3.org/2000/svg" xmlns:xlink="http://www.w3.org/1999/xlink">
<g id="graph0" class="graph" transform="scale(1 1) rotate(0) translate(4 400)">
<title>G</title>
<polygon fill="white" stroke="none" points="-4,4 -4,-400 309.514,-400 309.514,4 -4,4"/>
<!-- start -->
<g id="node1" class="node"><title>start</title>
<ellipse fill="none" stroke="black" cx="225.127" cy="-378" rx="33.4852" ry="18"/>
<text text-anchor="middle" x="225.127" y="-374.9" font-family="Courier New" font-size="12.00">start</text>
</g>
<!-- parse_arp -->
<g id="node2" class="node"><title>parse_arp</title>
<ellipse fill="none" stroke="black" cx="225.127" cy="-306" rx="51.9195" ry="18"/>
<text text-anchor="middle" x="225.127" y="-302.9" font-family="Courier New" font-size="12.00">parse_arp</text>
</g>
<!-- start&#45;&gt;parse_arp -->
<g id="edge1" class="edge"><title>start&#45;&gt;parse_arp</title>
<path fill="none" stroke="black" d="M225.127,-359.697C225.127,-351.983 225.127,-342.712 225.127,-334.112"/>
<polygon fill="black" stroke="black" points="228.627,-334.104 225.127,-324.104 221.627,-334.104 228.627,-334.104"/>
</g>
<!-- parse_ipv4 -->
<g id="node3" class="node"><title>parse_ipv4</title>
<ellipse fill="none" stroke="black" cx="145.127" cy="-234" rx="56.7683" ry="18"/>
<text text-anchor="middle" x="145.127" y="-230.9" font-family="Courier New" font-size="12.00">parse_ipv4</text>
</g>
<!-- start&#45;&gt;parse_ipv4 -->
<g id="edge2" class="edge"><title>start&#45;&gt;parse_ipv4</title>
<path fill="none" stroke="black" d="M204.168,-364.022C190.675,-354.57 173.891,-340.555 164.127,-324 153.056,-305.229 148.399,-280.85 146.459,-262.354"/>
<polygon fill="black" stroke="black" points="149.933,-261.9 145.602,-252.231 142.958,-262.49 149.933,-261.9"/>
</g>
<!-- exit -->
<g id="node4" class="node"><title>exit</title>
<polygon fill="none" stroke="black" points="207.127,-36 153.127,-36 153.127,-0 207.127,-0 207.127,-36"/>
<text text-anchor="middle" x="180.127" y="-14.9" font-family="Courier New" font-size="12.00">exit</text>
</g>
<!-- start&#45;&gt;exit -->
<g id="edge3" class="edge"><title>start&#45;&gt;exit</title>
<path fill="none" stroke="black" d="M246.086,-364.022C259.579,-354.57 276.363,-340.555 286.127,-324 306.675,-289.161 305.127,-275.447 305.127,-235 305.127,-235 305.127,-235 305.127,-161 305.127,-106.573 252.748,-63.1079 215.803,-39.2192"/>
<polygon fill="black" stroke="black" points="217.582,-36.2032 207.25,-33.8557 213.863,-42.1337 217.582,-36.2032"/>
</g>
<!-- parse_arp&#45;&gt;parse_ipv4 -->
<g id="edge4" class="edge"><title>parse_arp&#45;&gt;parse_ipv4</title>
<path fill="none" stroke="black" d="M206.974,-289.116C196.411,-279.874 182.916,-268.066 171.229,-257.84"/>
<polygon fill="black" stroke="black" points="173.316,-255.015 163.485,-251.064 168.706,-260.283 173.316,-255.015"/>
</g>
<!-- parse_arp&#45;&gt;exit -->
<g id="edge5" class="edge"><title>parse_arp&#45;&gt;exit</title>
<path fill="none" stroke="black" d="M230.793,-288.069C239.889,-258.719 255.969,-196.5 248.127,-144 243.184,-110.907 242.335,-101.273 226.127,-72 220.524,-61.8807 212.75,-51.9778 205.187,-43.5225"/>
<polygon fill="black" stroke="black" points="207.744,-41.1329 198.368,-36.1998 202.621,-45.9033 207.744,-41.1329"/>
</g>
<!-- parse_ipv4&#45;&gt;exit -->
<g id="edge8" class="edge"><title>parse_ipv4&#45;&gt;exit</title>
<path fill="none" stroke="black" d="M92.1296,-227.61C61.2354,-221.436 24.623,-208.227 5.12693,-180 -3.96602,-166.835 1.45088,-159.572 5.12693,-144 13.3468,-109.18 14.6035,-96.0106 41.1269,-72 69.8544,-45.9942 112.655,-32.2663 143.164,-25.3574"/>
<polygon fill="black" stroke="black" points="143.947,-28.7693 153.002,-23.2679 142.493,-21.9221 143.947,-28.7693"/>
</g>
<!-- parse_tcp -->
<g id="node5" class="node"><title>parse_tcp</title>
<ellipse fill="none" stroke="black" cx="66.1269" cy="-162" rx="51.9195" ry="18"/>
<text text-anchor="middle" x="66.1269" y="-158.9" font-family="Courier New" font-size="12.00">parse_tcp</text>
</g>
<!-- parse_ipv4&#45;&gt;parse_tcp -->
<g id="edge6" class="edge"><title>parse_ipv4&#45;&gt;parse_tcp</title>
<path fill="none" stroke="black" d="M126.804,-216.765C116.36,-207.511 103.113,-195.772 91.6618,-185.626"/>
<polygon fill="black" stroke="black" points="93.8837,-182.918 84.0779,-178.906 89.2413,-188.157 93.8837,-182.918"/>
</g>
<!-- parse_udp -->
<g id="node6" class="node"><title>parse_udp</title>
<ellipse fill="none" stroke="black" cx="187.127" cy="-162" rx="51.9195" ry="18"/>
<text text-anchor="middle" x="187.127" y="-158.9" font-family="Courier New" font-size="12.00">parse_udp</text>
</g>
<!-- parse_ipv4&#45;&gt;parse_udp -->
<g id="edge7" class="edge"><title>parse_ipv4&#45;&gt;parse_udp</title>
<path fill="none" stroke="black" d="M155.294,-216.055C160.247,-207.801 166.306,-197.701 171.804,-188.538"/>
<polygon fill="black" stroke="black" points="174.91,-190.165 177.054,-179.789 168.907,-186.563 174.91,-190.165"/>
</g>
<!-- parse_tcp&#45;&gt;exit -->
<g id="edge10" class="edge"><title>parse_tcp&#45;&gt;exit</title>
<path fill="none" stroke="black" d="M56.9646,-144.083C47.9932,-124.975 37.6134,-93.718 52.1269,-72 72.2102,-41.9474 112.825,-28.9144 142.944,-23.2751"/>
<polygon fill="black" stroke="black" points="143.824,-26.6765 153.109,-21.573 142.668,-19.7726 143.824,-26.6765"/>
</g>
<!-- parse_shimINT -->
<g id="node7" class="node"><title>parse_shimINT</title>
<ellipse fill="none" stroke="black" cx="131.127" cy="-90" rx="70.3543" ry="18"/>
<text text-anchor="middle" x="131.127" y="-86.9" font-family="Courier New" font-size="12.00">parse_shimINT</text>
</g>
<!-- parse_tcp&#45;&gt;parse_shimINT -->
<g id="edge9" class="edge"><title>parse_tcp&#45;&gt;parse_shimINT</title>
<path fill="none" stroke="black" d="M81.2026,-144.765C89.3701,-135.969 99.6221,-124.928 108.707,-115.144"/>
<polygon fill="black" stroke="black" points="111.442,-117.343 115.682,-107.633 106.312,-112.58 111.442,-117.343"/>
</g>
<!-- parse_udp&#45;&gt;exit -->
<g id="edge13" class="edge"><title>parse_udp&#45;&gt;exit</title>
<path fill="none" stroke="black" d="M196.669,-143.928C201.767,-133.821 207.517,-120.571 210.127,-108 213.38,-92.3341 214.202,-87.4723 210.127,-72 207.635,-62.5392 203.025,-52.9933 198.154,-44.6599"/>
<polygon fill="black" stroke="black" points="201.113,-42.7903 192.853,-36.1546 195.172,-46.4926 201.113,-42.7903"/>
</g>
<!-- parse_udp&#45;&gt;parse_shimINT -->
<g id="edge12" class="edge"><title>parse_udp&#45;&gt;parse_shimINT</title>
<path fill="none" stroke="black" d="M173.856,-144.411C167.051,-135.906 158.625,-125.372 151.058,-115.914"/>
<polygon fill="black" stroke="black" points="153.672,-113.578 144.692,-107.956 148.206,-117.951 153.672,-113.578"/>
</g>
<!-- parse_shimINT&#45;&gt;exit -->
<g id="edge11" class="edge"><title>parse_shimINT&#45;&gt;exit</title>
<path fill="none" stroke="black" d="M142.988,-72.055C148.741,-63.8373 155.773,-53.7911 162.165,-44.6599"/>
<polygon fill="black" stroke="black" points="165.167,-46.4748 168.034,-36.2753 159.432,-42.4605 165.167,-46.4748"/>
</g>
</g>
</svg>
