<?xml version="1.0" encoding="UTF-8" standalone="no"?>
<!DOCTYPE svg PUBLIC "-//W3C//DTD SVG 1.1//EN"
 "http://www.w3.org/Graphics/SVG/1.1/DTD/svg11.dtd">
<!-- Generated by graphviz version 2.38.0 (20140413.2041)
 -->
<!-- Title: G Pages: 1 -->
<svg width="491pt" height="857pt"
 viewBox="0.00 0.00 491.37 857.00" xmlns="http://www.w3.org/2000/svg" xmlns:xlink="http://www.w3.org/1999/xlink">
<g id="graph0" class="graph" transform="scale(1 1) rotate(0) translate(4 853)">
<title>G</title>
<polygon fill="white" stroke="none" points="-4,4 -4,-853 487.372,-853 487.372,4 -4,4"/>
<!-- ingress::tbl_act -->
<g id="node1" class="node"><title>ingress::tbl_act</title>
<ellipse fill="none" stroke="black" cx="297.037" cy="-831" rx="84.1712" ry="18"/>
<text text-anchor="middle" x="297.037" y="-827.9" font-family="Courier New" font-size="12.00">ingress::tbl_act</text>
</g>
<!-- _condition_0 &#160;&#160;&#160;&#160; -->
<g id="node2" class="node"><title>_condition_0 &#160;&#160;&#160;&#160;</title>
<ellipse fill="none" stroke="black" cx="297.037" cy="-758" rx="88.7893" ry="18"/>
<text text-anchor="middle" x="297.037" y="-754.9" font-family="Courier New" font-size="12.00">_condition_0 &#160;&#160;&#160;&#160;</text>
</g>
<!-- ingress::tbl_act&#45;&gt;_condition_0 &#160;&#160;&#160;&#160; -->
<g id="edge1" class="edge"><title>ingress::tbl_act&#45;&gt;_condition_0 &#160;&#160;&#160;&#160;</title>
<path fill="none" stroke="black" d="M297.037,-812.813C297.037,-804.789 297.037,-795.047 297.037,-786.069"/>
<polygon fill="black" stroke="black" points="300.537,-786.029 297.037,-776.029 293.537,-786.029 300.537,-786.029"/>
</g>
<!-- _condition_1 &#160;&#160;&#160;&#160;&#160; -->
<g id="node3" class="node"><title>_condition_1 &#160;&#160;&#160;&#160;&#160;</title>
<ellipse fill="none" stroke="black" cx="202.037" cy="-673" rx="93.6385" ry="18"/>
<text text-anchor="middle" x="202.037" y="-669.9" font-family="Courier New" font-size="12.00">_condition_1 &#160;&#160;&#160;&#160;&#160;</text>
</g>
<!-- _condition_0 &#160;&#160;&#160;&#160;&#45;&gt;_condition_1 &#160;&#160;&#160;&#160;&#160; -->
<g id="edge2" class="edge"><title>_condition_0 &#160;&#160;&#160;&#160;&#45;&gt;_condition_1 &#160;&#160;&#160;&#160;&#160;</title>
<path fill="none" stroke="black" d="M277.812,-740.204C263.777,-727.941 244.563,-711.154 228.995,-697.553"/>
<polygon fill="black" stroke="black" points="231.066,-694.715 221.233,-690.771 226.461,-699.987 231.066,-694.715"/>
<text text-anchor="middle" x="275.037" y="-712.4" font-family="Courier New" font-size="12.00">false</text>
</g>
<!-- ingress::arp_lpm -->
<g id="node4" class="node"><title>ingress::arp_lpm</title>
<ellipse fill="none" stroke="black" cx="399.037" cy="-619" rx="84.1712" ry="18"/>
<text text-anchor="middle" x="399.037" y="-615.9" font-family="Courier New" font-size="12.00">ingress::arp_lpm</text>
</g>
<!-- _condition_0 &#160;&#160;&#160;&#160;&#45;&gt;ingress::arp_lpm -->
<g id="edge3" class="edge"><title>_condition_0 &#160;&#160;&#160;&#160;&#45;&gt;ingress::arp_lpm</title>
<path fill="none" stroke="black" d="M309.749,-739.926C327.482,-716.107 359.771,-672.74 380.275,-645.2"/>
<polygon fill="black" stroke="black" points="383.32,-646.97 386.485,-636.859 377.706,-642.79 383.32,-646.97"/>
<text text-anchor="middle" x="345.537" y="-712.4" font-family="Courier New" font-size="12.00">true</text>
</g>
<!-- _condition_3 &#160;&#160;&#160;&#160;&#160;&#160;&#160;&#160;&#160; -->
<g id="node5" class="node"><title>_condition_3 &#160;&#160;&#160;&#160;&#160;&#160;&#160;&#160;&#160;</title>
<ellipse fill="none" stroke="black" cx="112.037" cy="-334" rx="112.074" ry="18"/>
<text text-anchor="middle" x="112.037" y="-330.9" font-family="Courier New" font-size="12.00">_condition_3 &#160;&#160;&#160;&#160;&#160;&#160;&#160;&#160;&#160;</text>
</g>
<!-- _condition_1 &#160;&#160;&#160;&#160;&#160;&#45;&gt;_condition_3 &#160;&#160;&#160;&#160;&#160;&#160;&#160;&#160;&#160; -->
<g id="edge4" class="edge"><title>_condition_1 &#160;&#160;&#160;&#160;&#160;&#45;&gt;_condition_3 &#160;&#160;&#160;&#160;&#160;&#160;&#160;&#160;&#160;</title>
<path fill="none" stroke="black" d="M130.206,-661.422C76.4013,-648.956 12.0368,-622.281 12.0368,-566 12.0368,-566 12.0368,-566 12.0368,-406 12.0368,-382.246 31.0282,-365.712 52.4584,-354.616"/>
<polygon fill="black" stroke="black" points="54.224,-357.652 61.7439,-350.188 51.2111,-351.333 54.224,-357.652"/>
<text text-anchor="middle" x="31.0368" y="-488.9" font-family="Courier New" font-size="12.00">false</text>
</g>
<!-- ingress::ipv4_lpm -->
<g id="node6" class="node"><title>ingress::ipv4_lpm</title>
<ellipse fill="none" stroke="black" cx="202.037" cy="-565" rx="88.7893" ry="18"/>
<text text-anchor="middle" x="202.037" y="-561.9" font-family="Courier New" font-size="12.00">ingress::ipv4_lpm</text>
</g>
<!-- _condition_1 &#160;&#160;&#160;&#160;&#160;&#45;&gt;ingress::ipv4_lpm -->
<g id="edge5" class="edge"><title>_condition_1 &#160;&#160;&#160;&#160;&#160;&#45;&gt;ingress::ipv4_lpm</title>
<path fill="none" stroke="black" d="M202.037,-654.969C202.037,-638.378 202.037,-612.883 202.037,-593.431"/>
<polygon fill="black" stroke="black" points="205.537,-593.341 202.037,-583.341 198.537,-593.341 205.537,-593.341"/>
<text text-anchor="middle" x="217.537" y="-615.9" font-family="Courier New" font-size="12.00">true</text>
</g>
<!-- ingress::arp_lpm&#45;&gt;_condition_3 &#160;&#160;&#160;&#160;&#160;&#160;&#160;&#160;&#160; -->
<g id="edge16" class="edge"><title>ingress::arp_lpm&#45;&gt;_condition_3 &#160;&#160;&#160;&#160;&#160;&#160;&#160;&#160;&#160;</title>
<path fill="none" stroke="black" d="M403.079,-600.714C406.895,-582.861 412.037,-554.141 412.037,-529 412.037,-529 412.037,-529 412.037,-406 412.037,-366.422 311.911,-348.877 227.348,-341.117"/>
<polygon fill="black" stroke="black" points="227.652,-337.63 217.384,-340.24 227.039,-344.603 227.652,-337.63"/>
</g>
<!-- _condition_4 &#160;&#160;&#160;&#160;&#160;&#160;&#160;&#160;&#160;&#160;&#160; -->
<g id="node7" class="node"><title>_condition_4 &#160;&#160;&#160;&#160;&#160;&#160;&#160;&#160;&#160;&#160;&#160;</title>
<ellipse fill="none" stroke="black" cx="139.037" cy="-176" rx="121.042" ry="18"/>
<text text-anchor="middle" x="139.037" y="-172.9" font-family="Courier New" font-size="12.00">_condition_4 &#160;&#160;&#160;&#160;&#160;&#160;&#160;&#160;&#160;&#160;&#160;</text>
</g>
<!-- _condition_3 &#160;&#160;&#160;&#160;&#160;&#160;&#160;&#160;&#160;&#45;&gt;_condition_4 &#160;&#160;&#160;&#160;&#160;&#160;&#160;&#160;&#160;&#160;&#160; -->
<g id="edge6" class="edge"><title>_condition_3 &#160;&#160;&#160;&#160;&#160;&#160;&#160;&#160;&#160;&#45;&gt;_condition_4 &#160;&#160;&#160;&#160;&#160;&#160;&#160;&#160;&#160;&#160;&#160;</title>
<path fill="none" stroke="black" d="M107.279,-315.652C102.434,-295.042 96.7192,-259.821 105.037,-231 107.909,-221.046 113.22,-211.159 118.805,-202.617"/>
<polygon fill="black" stroke="black" points="121.785,-204.462 124.633,-194.257 116.043,-200.459 121.785,-204.462"/>
<text text-anchor="middle" x="124.037" y="-245.9" font-family="Courier New" font-size="12.00">false</text>
</g>
<!-- ingress::tbl_act_0 -->
<g id="node8" class="node"><title>ingress::tbl_act_0</title>
<ellipse fill="none" stroke="black" cx="246.037" cy="-249" rx="93.6385" ry="18"/>
<text text-anchor="middle" x="246.037" y="-245.9" font-family="Courier New" font-size="12.00">ingress::tbl_act_0</text>
</g>
<!-- _condition_3 &#160;&#160;&#160;&#160;&#160;&#160;&#160;&#160;&#160;&#45;&gt;ingress::tbl_act_0 -->
<g id="edge7" class="edge"><title>_condition_3 &#160;&#160;&#160;&#160;&#160;&#160;&#160;&#160;&#160;&#45;&gt;ingress::tbl_act_0</title>
<path fill="none" stroke="black" d="M138.832,-316.403C159.599,-303.54 188.544,-285.611 211.124,-271.625"/>
<polygon fill="black" stroke="black" points="213.087,-274.526 219.745,-266.285 209.401,-268.576 213.087,-274.526"/>
<text text-anchor="middle" x="203.537" y="-288.4" font-family="Courier New" font-size="12.00">true</text>
</g>
<!-- _condition_2 &#160;&#160;&#160;&#160;&#160;&#160;&#160;&#160;&#160;&#160;&#160; -->
<g id="node11" class="node"><title>_condition_2 &#160;&#160;&#160;&#160;&#160;&#160;&#160;&#160;&#160;&#160;&#160;</title>
<ellipse fill="none" stroke="black" cx="202.037" cy="-492" rx="121.042" ry="18"/>
<text text-anchor="middle" x="202.037" y="-488.9" font-family="Courier New" font-size="12.00">_condition_2 &#160;&#160;&#160;&#160;&#160;&#160;&#160;&#160;&#160;&#160;&#160;</text>
</g>
<!-- ingress::ipv4_lpm&#45;&gt;_condition_2 &#160;&#160;&#160;&#160;&#160;&#160;&#160;&#160;&#160;&#160;&#160; -->
<g id="edge12" class="edge"><title>ingress::ipv4_lpm&#45;&gt;_condition_2 &#160;&#160;&#160;&#160;&#160;&#160;&#160;&#160;&#160;&#160;&#160;</title>
<path fill="none" stroke="black" d="M202.037,-546.813C202.037,-538.789 202.037,-529.047 202.037,-520.069"/>
<polygon fill="black" stroke="black" points="205.537,-520.029 202.037,-510.029 198.537,-520.029 205.537,-520.029"/>
</g>
<!-- exit_control_flow -->
<g id="node9" class="node"><title>exit_control_flow</title>
<ellipse fill="none" stroke="black" cx="166.037" cy="-18" rx="88.7893" ry="18"/>
<text text-anchor="middle" x="166.037" y="-14.9" font-family="Courier New" font-size="12.00">exit_control_flow</text>
</g>
<!-- _condition_4 &#160;&#160;&#160;&#160;&#160;&#160;&#160;&#160;&#160;&#160;&#160;&#45;&gt;exit_control_flow -->
<g id="edge8" class="edge"><title>_condition_4 &#160;&#160;&#160;&#160;&#160;&#160;&#160;&#160;&#160;&#160;&#160;&#45;&gt;exit_control_flow</title>
<path fill="none" stroke="black" d="M134.279,-157.652C129.434,-137.042 123.719,-101.821 132.037,-73 134.955,-62.8881 140.39,-52.8447 146.071,-44.2116"/>
<polygon fill="black" stroke="black" points="149.107,-45.9779 151.986,-35.7816 143.377,-41.9574 149.107,-45.9779"/>
<text text-anchor="middle" x="151.037" y="-87.9" font-family="Courier New" font-size="12.00">false</text>
</g>
<!-- ingress::tbl_act_1 -->
<g id="node10" class="node"><title>ingress::tbl_act_1</title>
<ellipse fill="none" stroke="black" cx="273.037" cy="-91" rx="93.6385" ry="18"/>
<text text-anchor="middle" x="273.037" y="-87.9" font-family="Courier New" font-size="12.00">ingress::tbl_act_1</text>
</g>
<!-- _condition_4 &#160;&#160;&#160;&#160;&#160;&#160;&#160;&#160;&#160;&#160;&#160;&#45;&gt;ingress::tbl_act_1 -->
<g id="edge9" class="edge"><title>_condition_4 &#160;&#160;&#160;&#160;&#160;&#160;&#160;&#160;&#160;&#160;&#160;&#45;&gt;ingress::tbl_act_1</title>
<path fill="none" stroke="black" d="M165.832,-158.403C186.599,-145.54 215.544,-127.611 238.124,-113.625"/>
<polygon fill="black" stroke="black" points="240.087,-116.526 246.745,-108.285 236.401,-110.576 240.087,-116.526"/>
<text text-anchor="middle" x="230.537" y="-130.4" font-family="Courier New" font-size="12.00">true</text>
</g>
<!-- ingress::tbl_act_0&#45;&gt;_condition_4 &#160;&#160;&#160;&#160;&#160;&#160;&#160;&#160;&#160;&#160;&#160; -->
<g id="edge11" class="edge"><title>ingress::tbl_act_0&#45;&gt;_condition_4 &#160;&#160;&#160;&#160;&#160;&#160;&#160;&#160;&#160;&#160;&#160;</title>
<path fill="none" stroke="black" d="M221.22,-231.533C206.739,-221.924 188.277,-209.674 172.522,-199.219"/>
<polygon fill="black" stroke="black" points="174.357,-196.237 164.09,-193.624 170.487,-202.069 174.357,-196.237"/>
</g>
<!-- ingress::tbl_act_1&#45;&gt;exit_control_flow -->
<g id="edge10" class="edge"><title>ingress::tbl_act_1&#45;&gt;exit_control_flow</title>
<path fill="none" stroke="black" d="M248.22,-73.5327C233.635,-63.8547 215.012,-51.4973 199.182,-40.9938"/>
<polygon fill="black" stroke="black" points="200.987,-37.9907 190.719,-35.378 197.116,-43.8234 200.987,-37.9907"/>
</g>
<!-- _condition_2 &#160;&#160;&#160;&#160;&#160;&#160;&#160;&#160;&#160;&#160;&#160;&#45;&gt;_condition_3 &#160;&#160;&#160;&#160;&#160;&#160;&#160;&#160;&#160; -->
<g id="edge13" class="edge"><title>_condition_2 &#160;&#160;&#160;&#160;&#160;&#160;&#160;&#160;&#160;&#160;&#160;&#45;&gt;_condition_3 &#160;&#160;&#160;&#160;&#160;&#160;&#160;&#160;&#160;</title>
<path fill="none" stroke="black" d="M139.801,-476.532C112.535,-466.767 83.1307,-450.782 67.0368,-425 53.6816,-403.605 69.7027,-377.717 86.2133,-359.209"/>
<polygon fill="black" stroke="black" points="88.9205,-361.439 93.2351,-351.763 83.8279,-356.637 88.9205,-361.439"/>
<text text-anchor="middle" x="86.0368" y="-403.9" font-family="Courier New" font-size="12.00">false</text>
</g>
<!-- ingress::process_int_report -->
<g id="node12" class="node"><title>ingress::process_int_report</title>
<ellipse fill="none" stroke="black" cx="249.037" cy="-407" rx="134.627" ry="18"/>
<text text-anchor="middle" x="249.037" y="-403.9" font-family="Courier New" font-size="12.00">ingress::process_int_report</text>
</g>
<!-- _condition_2 &#160;&#160;&#160;&#160;&#160;&#160;&#160;&#160;&#160;&#160;&#160;&#45;&gt;ingress::process_int_report -->
<g id="edge14" class="edge"><title>_condition_2 &#160;&#160;&#160;&#160;&#160;&#160;&#160;&#160;&#160;&#160;&#160;&#45;&gt;ingress::process_int_report</title>
<path fill="none" stroke="black" d="M211.775,-473.802C218.266,-462.34 226.92,-447.058 234.254,-434.106"/>
<polygon fill="black" stroke="black" points="237.429,-435.602 239.311,-425.176 231.338,-432.153 237.429,-435.602"/>
<text text-anchor="middle" x="244.537" y="-446.4" font-family="Courier New" font-size="12.00">true</text>
</g>
<!-- ingress::process_int_report&#45;&gt;_condition_3 &#160;&#160;&#160;&#160;&#160;&#160;&#160;&#160;&#160; -->
<g id="edge15" class="edge"><title>ingress::process_int_report&#45;&gt;_condition_3 &#160;&#160;&#160;&#160;&#160;&#160;&#160;&#160;&#160;</title>
<path fill="none" stroke="black" d="M216.916,-389.354C197.713,-379.401 173.136,-366.664 152.6,-356.022"/>
<polygon fill="black" stroke="black" points="153.973,-352.791 143.484,-351.297 150.752,-359.006 153.973,-352.791"/>
</g>
</g>
</svg>
