<?xml version="1.0" encoding="UTF-8" standalone="no"?>
<!DOCTYPE svg PUBLIC "-//W3C//DTD SVG 1.1//EN"
 "http://www.w3.org/Graphics/SVG/1.1/DTD/svg11.dtd">
<!-- Generated by graphviz version 2.38.0 (20140413.2041)
 -->
<!-- Title: G Pages: 1 -->
<svg width="325pt" height="202pt"
 viewBox="0.00 0.00 324.61 202.00" xmlns="http://www.w3.org/2000/svg" xmlns:xlink="http://www.w3.org/1999/xlink">
<g id="graph0" class="graph" transform="scale(1 1) rotate(0) translate(4 198)">
<title>G</title>
<polygon fill="white" stroke="none" points="-4,4 -4,-198 320.606,-198 320.606,4 -4,4"/>
<!-- _condition_5 &#160;&#160;&#160;&#160;&#160;&#160;&#160; -->
<g id="node1" class="node"><title>_condition_5 &#160;&#160;&#160;&#160;&#160;&#160;&#160;</title>
<ellipse fill="none" stroke="black" cx="102.803" cy="-176" rx="102.606" ry="18"/>
<text text-anchor="middle" x="102.803" y="-172.9" font-family="Courier New" font-size="12.00">_condition_5 &#160;&#160;&#160;&#160;&#160;&#160;&#160;</text>
</g>
<!-- exit_control_flow -->
<g id="node2" class="node"><title>exit_control_flow</title>
<ellipse fill="none" stroke="black" cx="100.803" cy="-18" rx="88.7893" ry="18"/>
<text text-anchor="middle" x="100.803" y="-14.9" font-family="Courier New" font-size="12.00">exit_control_flow</text>
</g>
<!-- _condition_5 &#160;&#160;&#160;&#160;&#160;&#160;&#160;&#45;&gt;exit_control_flow -->
<g id="edge1" class="edge"><title>_condition_5 &#160;&#160;&#160;&#160;&#160;&#160;&#160;&#45;&gt;exit_control_flow</title>
<path fill="none" stroke="black" d="M89.2594,-157.969C80.0801,-145.285 68.7516,-127.102 63.803,-109 59.5839,-93.5663 59.0693,-88.2837 63.803,-73 66.9804,-62.7413 72.8538,-52.6981 78.9998,-44.1092"/>
<polygon fill="black" stroke="black" points="81.8646,-46.1245 85.1469,-36.051 76.299,-41.8789 81.8646,-46.1245"/>
<text text-anchor="middle" x="82.803" y="-87.9" font-family="Courier New" font-size="12.00">false</text>
</g>
<!-- egress::add_metadata -->
<g id="node3" class="node"><title>egress::add_metadata</title>
<ellipse fill="none" stroke="black" cx="213.803" cy="-91" rx="102.606" ry="18"/>
<text text-anchor="middle" x="213.803" y="-87.9" font-family="Courier New" font-size="12.00">egress::add_metadata</text>
</g>
<!-- _condition_5 &#160;&#160;&#160;&#160;&#160;&#160;&#160;&#45;&gt;egress::add_metadata -->
<g id="edge2" class="edge"><title>_condition_5 &#160;&#160;&#160;&#160;&#160;&#160;&#160;&#45;&gt;egress::add_metadata</title>
<path fill="none" stroke="black" d="M124.999,-158.403C141.677,-145.932 164.724,-128.699 183.159,-114.914"/>
<polygon fill="black" stroke="black" points="185.353,-117.644 191.265,-108.853 181.161,-112.038 185.353,-117.644"/>
<text text-anchor="middle" x="180.303" y="-130.4" font-family="Courier New" font-size="12.00">true</text>
</g>
<!-- egress::add_metadata&#45;&gt;exit_control_flow -->
<g id="edge3" class="edge"><title>egress::add_metadata&#45;&gt;exit_control_flow</title>
<path fill="none" stroke="black" d="M187.595,-73.5327C172.049,-63.7651 152.16,-51.2682 135.344,-40.7025"/>
<polygon fill="black" stroke="black" points="137.199,-37.7346 126.869,-35.378 133.475,-43.6618 137.199,-37.7346"/>
</g>
</g>
</svg>
