<?xml version="1.0" encoding="UTF-8" standalone="no"?>
<!DOCTYPE svg PUBLIC "-//W3C//DTD SVG 1.1//EN"
 "http://www.w3.org/Graphics/SVG/1.1/DTD/svg11.dtd">
<!-- Generated by graphviz version 2.38.0 (20140413.2041)
 -->
<!-- Title: G Pages: 1 -->
<svg width="477pt" height="857pt"
 viewBox="0.00 0.00 476.57 857.00" xmlns="http://www.w3.org/2000/svg" xmlns:xlink="http://www.w3.org/1999/xlink">
<g id="graph0" class="graph" transform="scale(1 1) rotate(0) translate(4 853)">
<title>G</title>
<polygon fill="white" stroke="none" points="-4,4 -4,-853 472.569,-853 472.569,4 -4,4"/>
<!-- ingress::tbl_act -->
<g id="node1" class="node"><title>ingress::tbl_act</title>
<ellipse fill="none" stroke="black" cx="243" cy="-831" rx="84.1712" ry="18"/>
<text text-anchor="middle" x="243" y="-827.9" font-family="Courier New" font-size="12.00">ingress::tbl_act</text>
</g>
<!-- _condition_0 &#160;&#160;&#160;&#160;&#160;&#160;&#160;&#160;&#160; -->
<g id="node2" class="node"><title>_condition_0 &#160;&#160;&#160;&#160;&#160;&#160;&#160;&#160;&#160;</title>
<ellipse fill="none" stroke="black" cx="243" cy="-758" rx="112.074" ry="18"/>
<text text-anchor="middle" x="243" y="-754.9" font-family="Courier New" font-size="12.00">_condition_0 &#160;&#160;&#160;&#160;&#160;&#160;&#160;&#160;&#160;</text>
</g>
<!-- ingress::tbl_act&#45;&gt;_condition_0 &#160;&#160;&#160;&#160;&#160;&#160;&#160;&#160;&#160; -->
<g id="edge1" class="edge"><title>ingress::tbl_act&#45;&gt;_condition_0 &#160;&#160;&#160;&#160;&#160;&#160;&#160;&#160;&#160;</title>
<path fill="none" stroke="black" d="M243,-812.813C243,-804.789 243,-795.047 243,-786.069"/>
<polygon fill="black" stroke="black" points="246.5,-786.029 243,-776.029 239.5,-786.029 246.5,-786.029"/>
</g>
<!-- _condition_1 &#160;&#160;&#160;&#160;&#160;&#160;&#160;&#160;&#160;&#160;&#160; -->
<g id="node3" class="node"><title>_condition_1 &#160;&#160;&#160;&#160;&#160;&#160;&#160;&#160;&#160;&#160;&#160;</title>
<ellipse fill="none" stroke="black" cx="241" cy="-600" rx="121.042" ry="18"/>
<text text-anchor="middle" x="241" y="-596.9" font-family="Courier New" font-size="12.00">_condition_1 &#160;&#160;&#160;&#160;&#160;&#160;&#160;&#160;&#160;&#160;&#160;</text>
</g>
<!-- _condition_0 &#160;&#160;&#160;&#160;&#160;&#160;&#160;&#160;&#160;&#45;&gt;_condition_1 &#160;&#160;&#160;&#160;&#160;&#160;&#160;&#160;&#160;&#160;&#160; -->
<g id="edge2" class="edge"><title>_condition_0 &#160;&#160;&#160;&#160;&#160;&#160;&#160;&#160;&#160;&#45;&gt;_condition_1 &#160;&#160;&#160;&#160;&#160;&#160;&#160;&#160;&#160;&#160;&#160;</title>
<path fill="none" stroke="black" d="M230.666,-740.077C222.155,-727.302 211.579,-708.959 207,-691 203.047,-675.496 202.564,-670.373 207,-655 209.873,-645.046 215.184,-635.159 220.768,-626.617"/>
<polygon fill="black" stroke="black" points="223.748,-628.462 226.596,-618.257 218.006,-624.459 223.748,-628.462"/>
<text text-anchor="middle" x="226" y="-669.9" font-family="Courier New" font-size="12.00">false</text>
</g>
<!-- ingress::tbl_act_0 -->
<g id="node4" class="node"><title>ingress::tbl_act_0</title>
<ellipse fill="none" stroke="black" cx="348" cy="-673" rx="93.6385" ry="18"/>
<text text-anchor="middle" x="348" y="-669.9" font-family="Courier New" font-size="12.00">ingress::tbl_act_0</text>
</g>
<!-- _condition_0 &#160;&#160;&#160;&#160;&#160;&#160;&#160;&#160;&#160;&#45;&gt;ingress::tbl_act_0 -->
<g id="edge3" class="edge"><title>_condition_0 &#160;&#160;&#160;&#160;&#160;&#160;&#160;&#160;&#160;&#45;&gt;ingress::tbl_act_0</title>
<path fill="none" stroke="black" d="M264.248,-740.204C279.904,-727.829 301.388,-710.846 318.677,-697.179"/>
<polygon fill="black" stroke="black" points="321.109,-699.718 326.783,-690.771 316.768,-694.227 321.109,-699.718"/>
<text text-anchor="middle" x="317.5" y="-712.4" font-family="Courier New" font-size="12.00">true</text>
</g>
<!-- _condition_2 &#160;&#160;&#160;&#160; -->
<g id="node5" class="node"><title>_condition_2 &#160;&#160;&#160;&#160;</title>
<ellipse fill="none" stroke="black" cx="268" cy="-442" rx="88.7893" ry="18"/>
<text text-anchor="middle" x="268" y="-438.9" font-family="Courier New" font-size="12.00">_condition_2 &#160;&#160;&#160;&#160;</text>
</g>
<!-- _condition_1 &#160;&#160;&#160;&#160;&#160;&#160;&#160;&#160;&#160;&#160;&#160;&#45;&gt;_condition_2 &#160;&#160;&#160;&#160; -->
<g id="edge4" class="edge"><title>_condition_1 &#160;&#160;&#160;&#160;&#160;&#160;&#160;&#160;&#160;&#160;&#160;&#45;&gt;_condition_2 &#160;&#160;&#160;&#160;</title>
<path fill="none" stroke="black" d="M236.242,-581.652C231.397,-561.042 225.682,-525.821 234,-497 236.918,-486.888 242.353,-476.845 248.034,-468.212"/>
<polygon fill="black" stroke="black" points="251.07,-469.978 253.949,-459.782 245.34,-465.957 251.07,-469.978"/>
<text text-anchor="middle" x="253" y="-511.9" font-family="Courier New" font-size="12.00">false</text>
</g>
<!-- ingress::tbl_act_1 -->
<g id="node6" class="node"><title>ingress::tbl_act_1</title>
<ellipse fill="none" stroke="black" cx="375" cy="-515" rx="93.6385" ry="18"/>
<text text-anchor="middle" x="375" y="-511.9" font-family="Courier New" font-size="12.00">ingress::tbl_act_1</text>
</g>
<!-- _condition_1 &#160;&#160;&#160;&#160;&#160;&#160;&#160;&#160;&#160;&#160;&#160;&#45;&gt;ingress::tbl_act_1 -->
<g id="edge5" class="edge"><title>_condition_1 &#160;&#160;&#160;&#160;&#160;&#160;&#160;&#160;&#160;&#160;&#160;&#45;&gt;ingress::tbl_act_1</title>
<path fill="none" stroke="black" d="M267.795,-582.403C288.562,-569.54 317.507,-551.611 340.087,-537.625"/>
<polygon fill="black" stroke="black" points="342.05,-540.526 348.708,-532.285 338.364,-534.576 342.05,-540.526"/>
<text text-anchor="middle" x="332.5" y="-554.4" font-family="Courier New" font-size="12.00">true</text>
</g>
<!-- ingress::tbl_act_0&#45;&gt;_condition_1 &#160;&#160;&#160;&#160;&#160;&#160;&#160;&#160;&#160;&#160;&#160; -->
<g id="edge16" class="edge"><title>ingress::tbl_act_0&#45;&gt;_condition_1 &#160;&#160;&#160;&#160;&#160;&#160;&#160;&#160;&#160;&#160;&#160;</title>
<path fill="none" stroke="black" d="M323.183,-655.533C308.702,-645.924 290.241,-633.674 274.485,-623.219"/>
<polygon fill="black" stroke="black" points="276.321,-620.237 266.053,-617.624 272.45,-626.069 276.321,-620.237"/>
</g>
<!-- _condition_3 &#160;&#160;&#160;&#160;&#160; -->
<g id="node7" class="node"><title>_condition_3 &#160;&#160;&#160;&#160;&#160;</title>
<ellipse fill="none" stroke="black" cx="177" cy="-357" rx="93.6385" ry="18"/>
<text text-anchor="middle" x="177" y="-353.9" font-family="Courier New" font-size="12.00">_condition_3 &#160;&#160;&#160;&#160;&#160;</text>
</g>
<!-- _condition_2 &#160;&#160;&#160;&#160;&#45;&gt;_condition_3 &#160;&#160;&#160;&#160;&#160; -->
<g id="edge6" class="edge"><title>_condition_2 &#160;&#160;&#160;&#160;&#45;&gt;_condition_3 &#160;&#160;&#160;&#160;&#160;</title>
<path fill="none" stroke="black" d="M249.585,-424.204C236.14,-411.941 217.735,-395.154 202.823,-381.553"/>
<polygon fill="black" stroke="black" points="205.135,-378.924 195.388,-374.771 200.418,-384.096 205.135,-378.924"/>
<text text-anchor="middle" x="247" y="-396.4" font-family="Courier New" font-size="12.00">false</text>
</g>
<!-- ingress::arp_lpm -->
<g id="node8" class="node"><title>ingress::arp_lpm</title>
<ellipse fill="none" stroke="black" cx="319" cy="-303" rx="84.1712" ry="18"/>
<text text-anchor="middle" x="319" y="-299.9" font-family="Courier New" font-size="12.00">ingress::arp_lpm</text>
</g>
<!-- _condition_2 &#160;&#160;&#160;&#160;&#45;&gt;ingress::arp_lpm -->
<g id="edge7" class="edge"><title>_condition_2 &#160;&#160;&#160;&#160;&#45;&gt;ingress::arp_lpm</title>
<path fill="none" stroke="black" d="M274.356,-423.926C283.06,-400.544 298.777,-358.325 309.049,-330.732"/>
<polygon fill="black" stroke="black" points="312.355,-331.882 312.564,-321.289 305.795,-329.44 312.355,-331.882"/>
<text text-anchor="middle" x="300.5" y="-396.4" font-family="Courier New" font-size="12.00">true</text>
</g>
<!-- ingress::tbl_act_1&#45;&gt;_condition_2 &#160;&#160;&#160;&#160; -->
<g id="edge15" class="edge"><title>ingress::tbl_act_1&#45;&gt;_condition_2 &#160;&#160;&#160;&#160;</title>
<path fill="none" stroke="black" d="M350.183,-497.533C335.598,-487.855 316.975,-475.497 301.146,-464.994"/>
<polygon fill="black" stroke="black" points="302.95,-461.991 292.682,-459.378 299.08,-467.823 302.95,-461.991"/>
</g>
<!-- exit_control_flow -->
<g id="node9" class="node"><title>exit_control_flow</title>
<ellipse fill="none" stroke="black" cx="91" cy="-18" rx="88.7893" ry="18"/>
<text text-anchor="middle" x="91" y="-14.9" font-family="Courier New" font-size="12.00">exit_control_flow</text>
</g>
<!-- _condition_3 &#160;&#160;&#160;&#160;&#160;&#45;&gt;exit_control_flow -->
<g id="edge8" class="edge"><title>_condition_3 &#160;&#160;&#160;&#160;&#160;&#45;&gt;exit_control_flow</title>
<path fill="none" stroke="black" d="M111.092,-344.164C60.7681,-330.885 0,-303.727 0,-250 0,-250 0,-250 0,-90 0,-66.6972 18.7782,-49.9144 39.2741,-38.5367"/>
<polygon fill="black" stroke="black" points="41.1323,-41.5171 48.4308,-33.8371 37.936,-35.2895 41.1323,-41.5171"/>
<text text-anchor="middle" x="19" y="-172.9" font-family="Courier New" font-size="12.00">false</text>
</g>
<!-- ingress::ipv4_lpm -->
<g id="node10" class="node"><title>ingress::ipv4_lpm</title>
<ellipse fill="none" stroke="black" cx="177" cy="-249" rx="88.7893" ry="18"/>
<text text-anchor="middle" x="177" y="-245.9" font-family="Courier New" font-size="12.00">ingress::ipv4_lpm</text>
</g>
<!-- _condition_3 &#160;&#160;&#160;&#160;&#160;&#45;&gt;ingress::ipv4_lpm -->
<g id="edge9" class="edge"><title>_condition_3 &#160;&#160;&#160;&#160;&#160;&#45;&gt;ingress::ipv4_lpm</title>
<path fill="none" stroke="black" d="M177,-338.969C177,-322.378 177,-296.883 177,-277.431"/>
<polygon fill="black" stroke="black" points="180.5,-277.341 177,-267.341 173.5,-277.341 180.5,-277.341"/>
<text text-anchor="middle" x="192.5" y="-299.9" font-family="Courier New" font-size="12.00">true</text>
</g>
<!-- ingress::arp_lpm&#45;&gt;exit_control_flow -->
<g id="edge14" class="edge"><title>ingress::arp_lpm&#45;&gt;exit_control_flow</title>
<path fill="none" stroke="black" d="M321.138,-284.969C323.197,-267.079 326,-238.109 326,-213 326,-213 326,-213 326,-90 326,-57.8222 244.241,-38.9022 177.173,-28.7951"/>
<polygon fill="black" stroke="black" points="177.374,-25.2875 166.973,-27.3077 176.363,-32.2142 177.374,-25.2875"/>
</g>
<!-- _condition_4 &#160;&#160;&#160;&#160;&#160;&#160;&#160;&#160;&#160;&#160;&#160; -->
<g id="node11" class="node"><title>_condition_4 &#160;&#160;&#160;&#160;&#160;&#160;&#160;&#160;&#160;&#160;&#160;</title>
<ellipse fill="none" stroke="black" cx="177" cy="-176" rx="121.042" ry="18"/>
<text text-anchor="middle" x="177" y="-172.9" font-family="Courier New" font-size="12.00">_condition_4 &#160;&#160;&#160;&#160;&#160;&#160;&#160;&#160;&#160;&#160;&#160;</text>
</g>
<!-- ingress::ipv4_lpm&#45;&gt;_condition_4 &#160;&#160;&#160;&#160;&#160;&#160;&#160;&#160;&#160;&#160;&#160; -->
<g id="edge10" class="edge"><title>ingress::ipv4_lpm&#45;&gt;_condition_4 &#160;&#160;&#160;&#160;&#160;&#160;&#160;&#160;&#160;&#160;&#160;</title>
<path fill="none" stroke="black" d="M177,-230.813C177,-222.789 177,-213.047 177,-204.069"/>
<polygon fill="black" stroke="black" points="180.5,-204.029 177,-194.029 173.5,-204.029 180.5,-204.029"/>
</g>
<!-- _condition_4 &#160;&#160;&#160;&#160;&#160;&#160;&#160;&#160;&#160;&#160;&#160;&#45;&gt;exit_control_flow -->
<g id="edge11" class="edge"><title>_condition_4 &#160;&#160;&#160;&#160;&#160;&#160;&#160;&#160;&#160;&#160;&#160;&#45;&gt;exit_control_flow</title>
<path fill="none" stroke="black" d="M122.498,-159.802C97.2945,-149.743 69.7324,-133.72 55,-109 42.6726,-88.3154 55.372,-62.6371 68.9728,-44.0092"/>
<polygon fill="black" stroke="black" points="71.8309,-46.0352 75.1986,-35.9899 66.3016,-41.7425 71.8309,-46.0352"/>
<text text-anchor="middle" x="74" y="-87.9" font-family="Courier New" font-size="12.00">false</text>
</g>
<!-- ingress::int_source -->
<g id="node12" class="node"><title>ingress::int_source</title>
<ellipse fill="none" stroke="black" cx="200" cy="-91" rx="97.7568" ry="18"/>
<text text-anchor="middle" x="200" y="-87.9" font-family="Courier New" font-size="12.00">ingress::int_source</text>
</g>
<!-- _condition_4 &#160;&#160;&#160;&#160;&#160;&#160;&#160;&#160;&#160;&#160;&#160;&#45;&gt;ingress::int_source -->
<g id="edge12" class="edge"><title>_condition_4 &#160;&#160;&#160;&#160;&#160;&#160;&#160;&#160;&#160;&#160;&#160;&#45;&gt;ingress::int_source</title>
<path fill="none" stroke="black" d="M181.766,-157.802C184.88,-146.562 189.013,-131.65 192.556,-118.863"/>
<polygon fill="black" stroke="black" points="195.943,-119.747 195.24,-109.176 189.197,-117.878 195.943,-119.747"/>
<text text-anchor="middle" x="205.5" y="-130.4" font-family="Courier New" font-size="12.00">true</text>
</g>
<!-- ingress::int_source&#45;&gt;exit_control_flow -->
<g id="edge13" class="edge"><title>ingress::int_source&#45;&gt;exit_control_flow</title>
<path fill="none" stroke="black" d="M174.719,-73.5327C159.861,-63.8547 140.89,-51.4973 124.765,-40.9938"/>
<polygon fill="black" stroke="black" points="126.433,-37.9033 116.144,-35.378 122.613,-43.7687 126.433,-37.9033"/>
</g>
</g>
</svg>
