<?xml version="1.0" encoding="UTF-8" standalone="no"?>
<!DOCTYPE svg PUBLIC "-//W3C//DTD SVG 1.1//EN"
 "http://www.w3.org/Graphics/SVG/1.1/DTD/svg11.dtd">
<!-- Generated by graphviz version 2.38.0 (20140413.2041)
 -->
<!-- Title: G Pages: 1 -->
<svg width="411pt" height="541pt"
 viewBox="0.00 0.00 411.34 541.00" xmlns="http://www.w3.org/2000/svg" xmlns:xlink="http://www.w3.org/1999/xlink">
<g id="graph0" class="graph" transform="scale(1 1) rotate(0) translate(4 537)">
<title>G</title>
<polygon fill="white" stroke="none" points="-4,4 -4,-537 407.335,-537 407.335,4 -4,4"/>
<!-- ingress::tbl_act -->
<g id="node1" class="node"><title>ingress::tbl_act</title>
<ellipse fill="none" stroke="black" cx="258" cy="-515" rx="84.1712" ry="18"/>
<text text-anchor="middle" x="258" y="-511.9" font-family="Courier New" font-size="12.00">ingress::tbl_act</text>
</g>
<!-- _condition_0 &#160;&#160;&#160;&#160; -->
<g id="node2" class="node"><title>_condition_0 &#160;&#160;&#160;&#160;</title>
<ellipse fill="none" stroke="black" cx="258" cy="-442" rx="88.7893" ry="18"/>
<text text-anchor="middle" x="258" y="-438.9" font-family="Courier New" font-size="12.00">_condition_0 &#160;&#160;&#160;&#160;</text>
</g>
<!-- ingress::tbl_act&#45;&gt;_condition_0 &#160;&#160;&#160;&#160; -->
<g id="edge1" class="edge"><title>ingress::tbl_act&#45;&gt;_condition_0 &#160;&#160;&#160;&#160;</title>
<path fill="none" stroke="black" d="M258,-496.813C258,-488.789 258,-479.047 258,-470.069"/>
<polygon fill="black" stroke="black" points="261.5,-470.029 258,-460.029 254.5,-470.029 261.5,-470.029"/>
</g>
<!-- _condition_1 &#160;&#160;&#160;&#160;&#160; -->
<g id="node3" class="node"><title>_condition_1 &#160;&#160;&#160;&#160;&#160;</title>
<ellipse fill="none" stroke="black" cx="177" cy="-357" rx="93.6385" ry="18"/>
<text text-anchor="middle" x="177" y="-353.9" font-family="Courier New" font-size="12.00">_condition_1 &#160;&#160;&#160;&#160;&#160;</text>
</g>
<!-- _condition_0 &#160;&#160;&#160;&#160;&#45;&gt;_condition_1 &#160;&#160;&#160;&#160;&#160; -->
<g id="edge2" class="edge"><title>_condition_0 &#160;&#160;&#160;&#160;&#45;&gt;_condition_1 &#160;&#160;&#160;&#160;&#160;</title>
<path fill="none" stroke="black" d="M241.608,-424.204C229.861,-412.166 213.858,-395.769 200.719,-382.305"/>
<polygon fill="black" stroke="black" points="202.856,-379.484 193.367,-374.771 197.847,-384.373 202.856,-379.484"/>
<text text-anchor="middle" x="242" y="-396.4" font-family="Courier New" font-size="12.00">false</text>
</g>
<!-- ingress::arp_lpm -->
<g id="node4" class="node"><title>ingress::arp_lpm</title>
<ellipse fill="none" stroke="black" cx="319" cy="-303" rx="84.1712" ry="18"/>
<text text-anchor="middle" x="319" y="-299.9" font-family="Courier New" font-size="12.00">ingress::arp_lpm</text>
</g>
<!-- _condition_0 &#160;&#160;&#160;&#160;&#45;&gt;ingress::arp_lpm -->
<g id="edge3" class="edge"><title>_condition_0 &#160;&#160;&#160;&#160;&#45;&gt;ingress::arp_lpm</title>
<path fill="none" stroke="black" d="M265.602,-423.926C276.013,-400.544 294.811,-358.325 307.098,-330.732"/>
<polygon fill="black" stroke="black" points="310.432,-331.848 311.302,-321.289 304.037,-329.001 310.432,-331.848"/>
<text text-anchor="middle" x="294.5" y="-396.4" font-family="Courier New" font-size="12.00">true</text>
</g>
<!-- exit_control_flow -->
<g id="node5" class="node"><title>exit_control_flow</title>
<ellipse fill="none" stroke="black" cx="91" cy="-18" rx="88.7893" ry="18"/>
<text text-anchor="middle" x="91" y="-14.9" font-family="Courier New" font-size="12.00">exit_control_flow</text>
</g>
<!-- _condition_1 &#160;&#160;&#160;&#160;&#160;&#45;&gt;exit_control_flow -->
<g id="edge4" class="edge"><title>_condition_1 &#160;&#160;&#160;&#160;&#160;&#45;&gt;exit_control_flow</title>
<path fill="none" stroke="black" d="M111.092,-344.164C60.7681,-330.885 0,-303.727 0,-250 0,-250 0,-250 0,-90 0,-66.6972 18.7782,-49.9144 39.2741,-38.5367"/>
<polygon fill="black" stroke="black" points="41.1323,-41.5171 48.4308,-33.8371 37.936,-35.2895 41.1323,-41.5171"/>
<text text-anchor="middle" x="19" y="-172.9" font-family="Courier New" font-size="12.00">false</text>
</g>
<!-- ingress::ipv4_lpm -->
<g id="node6" class="node"><title>ingress::ipv4_lpm</title>
<ellipse fill="none" stroke="black" cx="177" cy="-249" rx="88.7893" ry="18"/>
<text text-anchor="middle" x="177" y="-245.9" font-family="Courier New" font-size="12.00">ingress::ipv4_lpm</text>
</g>
<!-- _condition_1 &#160;&#160;&#160;&#160;&#160;&#45;&gt;ingress::ipv4_lpm -->
<g id="edge5" class="edge"><title>_condition_1 &#160;&#160;&#160;&#160;&#160;&#45;&gt;ingress::ipv4_lpm</title>
<path fill="none" stroke="black" d="M177,-338.969C177,-322.378 177,-296.883 177,-277.431"/>
<polygon fill="black" stroke="black" points="180.5,-277.341 177,-267.341 173.5,-277.341 180.5,-277.341"/>
<text text-anchor="middle" x="192.5" y="-299.9" font-family="Courier New" font-size="12.00">true</text>
</g>
<!-- ingress::arp_lpm&#45;&gt;exit_control_flow -->
<g id="edge10" class="edge"><title>ingress::arp_lpm&#45;&gt;exit_control_flow</title>
<path fill="none" stroke="black" d="M321.138,-284.969C323.197,-267.079 326,-238.109 326,-213 326,-213 326,-213 326,-90 326,-57.8222 244.241,-38.9022 177.173,-28.7951"/>
<polygon fill="black" stroke="black" points="177.374,-25.2875 166.973,-27.3077 176.363,-32.2142 177.374,-25.2875"/>
</g>
<!-- _condition_2 &#160;&#160;&#160;&#160;&#160;&#160;&#160;&#160;&#160;&#160;&#160; -->
<g id="node7" class="node"><title>_condition_2 &#160;&#160;&#160;&#160;&#160;&#160;&#160;&#160;&#160;&#160;&#160;</title>
<ellipse fill="none" stroke="black" cx="177" cy="-176" rx="121.042" ry="18"/>
<text text-anchor="middle" x="177" y="-172.9" font-family="Courier New" font-size="12.00">_condition_2 &#160;&#160;&#160;&#160;&#160;&#160;&#160;&#160;&#160;&#160;&#160;</text>
</g>
<!-- ingress::ipv4_lpm&#45;&gt;_condition_2 &#160;&#160;&#160;&#160;&#160;&#160;&#160;&#160;&#160;&#160;&#160; -->
<g id="edge6" class="edge"><title>ingress::ipv4_lpm&#45;&gt;_condition_2 &#160;&#160;&#160;&#160;&#160;&#160;&#160;&#160;&#160;&#160;&#160;</title>
<path fill="none" stroke="black" d="M177,-230.813C177,-222.789 177,-213.047 177,-204.069"/>
<polygon fill="black" stroke="black" points="180.5,-204.029 177,-194.029 173.5,-204.029 180.5,-204.029"/>
</g>
<!-- _condition_2 &#160;&#160;&#160;&#160;&#160;&#160;&#160;&#160;&#160;&#160;&#160;&#45;&gt;exit_control_flow -->
<g id="edge7" class="edge"><title>_condition_2 &#160;&#160;&#160;&#160;&#160;&#160;&#160;&#160;&#160;&#160;&#160;&#45;&gt;exit_control_flow</title>
<path fill="none" stroke="black" d="M122.498,-159.802C97.2945,-149.743 69.7324,-133.72 55,-109 42.6726,-88.3154 55.372,-62.6371 68.9728,-44.0092"/>
<polygon fill="black" stroke="black" points="71.8309,-46.0352 75.1986,-35.9899 66.3016,-41.7425 71.8309,-46.0352"/>
<text text-anchor="middle" x="74" y="-87.9" font-family="Courier New" font-size="12.00">false</text>
</g>
<!-- ingress::int_source -->
<g id="node8" class="node"><title>ingress::int_source</title>
<ellipse fill="none" stroke="black" cx="200" cy="-91" rx="97.7568" ry="18"/>
<text text-anchor="middle" x="200" y="-87.9" font-family="Courier New" font-size="12.00">ingress::int_source</text>
</g>
<!-- _condition_2 &#160;&#160;&#160;&#160;&#160;&#160;&#160;&#160;&#160;&#160;&#160;&#45;&gt;ingress::int_source -->
<g id="edge8" class="edge"><title>_condition_2 &#160;&#160;&#160;&#160;&#160;&#160;&#160;&#160;&#160;&#160;&#160;&#45;&gt;ingress::int_source</title>
<path fill="none" stroke="black" d="M181.766,-157.802C184.88,-146.562 189.013,-131.65 192.556,-118.863"/>
<polygon fill="black" stroke="black" points="195.943,-119.747 195.24,-109.176 189.197,-117.878 195.943,-119.747"/>
<text text-anchor="middle" x="205.5" y="-130.4" font-family="Courier New" font-size="12.00">true</text>
</g>
<!-- ingress::int_source&#45;&gt;exit_control_flow -->
<g id="edge9" class="edge"><title>ingress::int_source&#45;&gt;exit_control_flow</title>
<path fill="none" stroke="black" d="M174.719,-73.5327C159.861,-63.8547 140.89,-51.4973 124.765,-40.9938"/>
<polygon fill="black" stroke="black" points="126.433,-37.9033 116.144,-35.378 122.613,-43.7687 126.433,-37.9033"/>
</g>
</g>
</svg>
