<?xml version="1.0" encoding="UTF-8" standalone="no"?>
<!DOCTYPE svg PUBLIC "-//W3C//DTD SVG 1.1//EN"
 "http://www.w3.org/Graphics/SVG/1.1/DTD/svg11.dtd">
<!-- Generated by graphviz version 2.38.0 (20140413.2041)
 -->
<!-- Title: G Pages: 1 -->
<svg width="479pt" height="541pt"
 viewBox="0.00 0.00 479.34 541.00" xmlns="http://www.w3.org/2000/svg" xmlns:xlink="http://www.w3.org/1999/xlink">
<g id="graph0" class="graph" transform="scale(1 1) rotate(0) translate(4 537)">
<title>G</title>
<polygon fill="white" stroke="none" points="-4,4 -4,-537 475.335,-537 475.335,4 -4,4"/>
<!-- ingress::tbl_act -->
<g id="node1" class="node"><title>ingress::tbl_act</title>
<ellipse fill="none" stroke="black" cx="285" cy="-515" rx="84.1712" ry="18"/>
<text text-anchor="middle" x="285" y="-511.9" font-family="Courier New" font-size="12.00">ingress::tbl_act</text>
</g>
<!-- _condition_0 &#160;&#160;&#160;&#160; -->
<g id="node2" class="node"><title>_condition_0 &#160;&#160;&#160;&#160;</title>
<ellipse fill="none" stroke="black" cx="285" cy="-442" rx="88.7893" ry="18"/>
<text text-anchor="middle" x="285" y="-438.9" font-family="Courier New" font-size="12.00">_condition_0 &#160;&#160;&#160;&#160;</text>
</g>
<!-- ingress::tbl_act&#45;&gt;_condition_0 &#160;&#160;&#160;&#160; -->
<g id="edge1" class="edge"><title>ingress::tbl_act&#45;&gt;_condition_0 &#160;&#160;&#160;&#160;</title>
<path fill="none" stroke="black" d="M285,-496.813C285,-488.789 285,-479.047 285,-470.069"/>
<polygon fill="black" stroke="black" points="288.5,-470.029 285,-460.029 281.5,-470.029 288.5,-470.029"/>
</g>
<!-- _condition_1 &#160;&#160;&#160;&#160;&#160; -->
<g id="node3" class="node"><title>_condition_1 &#160;&#160;&#160;&#160;&#160;</title>
<ellipse fill="none" stroke="black" cx="190" cy="-357" rx="93.6385" ry="18"/>
<text text-anchor="middle" x="190" y="-353.9" font-family="Courier New" font-size="12.00">_condition_1 &#160;&#160;&#160;&#160;&#160;</text>
</g>
<!-- _condition_0 &#160;&#160;&#160;&#160;&#45;&gt;_condition_1 &#160;&#160;&#160;&#160;&#160; -->
<g id="edge2" class="edge"><title>_condition_0 &#160;&#160;&#160;&#160;&#45;&gt;_condition_1 &#160;&#160;&#160;&#160;&#160;</title>
<path fill="none" stroke="black" d="M265.775,-424.204C251.74,-411.941 232.526,-395.154 216.958,-381.553"/>
<polygon fill="black" stroke="black" points="219.03,-378.715 209.196,-374.771 214.424,-383.987 219.03,-378.715"/>
<text text-anchor="middle" x="263" y="-396.4" font-family="Courier New" font-size="12.00">false</text>
</g>
<!-- ingress::arp_lpm -->
<g id="node4" class="node"><title>ingress::arp_lpm</title>
<ellipse fill="none" stroke="black" cx="387" cy="-303" rx="84.1712" ry="18"/>
<text text-anchor="middle" x="387" y="-299.9" font-family="Courier New" font-size="12.00">ingress::arp_lpm</text>
</g>
<!-- _condition_0 &#160;&#160;&#160;&#160;&#45;&gt;ingress::arp_lpm -->
<g id="edge3" class="edge"><title>_condition_0 &#160;&#160;&#160;&#160;&#45;&gt;ingress::arp_lpm</title>
<path fill="none" stroke="black" d="M297.712,-423.926C315.446,-400.107 347.734,-356.74 368.238,-329.2"/>
<polygon fill="black" stroke="black" points="371.284,-330.97 374.448,-320.859 365.669,-326.79 371.284,-330.97"/>
<text text-anchor="middle" x="333.5" y="-396.4" font-family="Courier New" font-size="12.00">true</text>
</g>
<!-- exit_control_flow -->
<g id="node5" class="node"><title>exit_control_flow</title>
<ellipse fill="none" stroke="black" cx="100" cy="-18" rx="88.7893" ry="18"/>
<text text-anchor="middle" x="100" y="-14.9" font-family="Courier New" font-size="12.00">exit_control_flow</text>
</g>
<!-- _condition_1 &#160;&#160;&#160;&#160;&#160;&#45;&gt;exit_control_flow -->
<g id="edge4" class="edge"><title>_condition_1 &#160;&#160;&#160;&#160;&#160;&#45;&gt;exit_control_flow</title>
<path fill="none" stroke="black" d="M118.169,-345.422C64.3645,-332.956 0,-306.281 0,-250 0,-250 0,-250 0,-90 0,-65.3916 20.3825,-48.5315 42.7433,-37.4393"/>
<polygon fill="black" stroke="black" points="44.4152,-40.5233 52.0503,-33.1778 41.5009,-34.1587 44.4152,-40.5233"/>
<text text-anchor="middle" x="19" y="-172.9" font-family="Courier New" font-size="12.00">false</text>
</g>
<!-- ingress::ipv4_lpm -->
<g id="node6" class="node"><title>ingress::ipv4_lpm</title>
<ellipse fill="none" stroke="black" cx="190" cy="-249" rx="88.7893" ry="18"/>
<text text-anchor="middle" x="190" y="-245.9" font-family="Courier New" font-size="12.00">ingress::ipv4_lpm</text>
</g>
<!-- _condition_1 &#160;&#160;&#160;&#160;&#160;&#45;&gt;ingress::ipv4_lpm -->
<g id="edge5" class="edge"><title>_condition_1 &#160;&#160;&#160;&#160;&#160;&#45;&gt;ingress::ipv4_lpm</title>
<path fill="none" stroke="black" d="M190,-338.969C190,-322.378 190,-296.883 190,-277.431"/>
<polygon fill="black" stroke="black" points="193.5,-277.341 190,-267.341 186.5,-277.341 193.5,-277.341"/>
<text text-anchor="middle" x="205.5" y="-299.9" font-family="Courier New" font-size="12.00">true</text>
</g>
<!-- ingress::arp_lpm&#45;&gt;exit_control_flow -->
<g id="edge10" class="edge"><title>ingress::arp_lpm&#45;&gt;exit_control_flow</title>
<path fill="none" stroke="black" d="M391.042,-284.714C394.858,-266.861 400,-238.141 400,-213 400,-213 400,-213 400,-90 400,-47.2896 283.399,-30.2379 195.583,-23.4521"/>
<polygon fill="black" stroke="black" points="195.797,-19.9584 185.566,-22.7124 195.282,-26.9394 195.797,-19.9584"/>
</g>
<!-- _condition_2 &#160;&#160;&#160;&#160;&#160;&#160;&#160;&#160;&#160;&#160;&#160; -->
<g id="node7" class="node"><title>_condition_2 &#160;&#160;&#160;&#160;&#160;&#160;&#160;&#160;&#160;&#160;&#160;</title>
<ellipse fill="none" stroke="black" cx="190" cy="-176" rx="121.042" ry="18"/>
<text text-anchor="middle" x="190" y="-172.9" font-family="Courier New" font-size="12.00">_condition_2 &#160;&#160;&#160;&#160;&#160;&#160;&#160;&#160;&#160;&#160;&#160;</text>
</g>
<!-- ingress::ipv4_lpm&#45;&gt;_condition_2 &#160;&#160;&#160;&#160;&#160;&#160;&#160;&#160;&#160;&#160;&#160; -->
<g id="edge6" class="edge"><title>ingress::ipv4_lpm&#45;&gt;_condition_2 &#160;&#160;&#160;&#160;&#160;&#160;&#160;&#160;&#160;&#160;&#160;</title>
<path fill="none" stroke="black" d="M190,-230.813C190,-222.789 190,-213.047 190,-204.069"/>
<polygon fill="black" stroke="black" points="193.5,-204.029 190,-194.029 186.5,-204.029 193.5,-204.029"/>
</g>
<!-- _condition_2 &#160;&#160;&#160;&#160;&#160;&#160;&#160;&#160;&#160;&#160;&#160;&#45;&gt;exit_control_flow -->
<g id="edge7" class="edge"><title>_condition_2 &#160;&#160;&#160;&#160;&#160;&#160;&#160;&#160;&#160;&#160;&#160;&#45;&gt;exit_control_flow</title>
<path fill="none" stroke="black" d="M127.765,-160.532C100.498,-150.767 71.0939,-134.782 55,-109 41.6447,-87.6049 57.6658,-61.7169 74.1765,-43.2085"/>
<polygon fill="black" stroke="black" points="76.8837,-45.4393 81.1983,-35.7628 71.791,-40.6366 76.8837,-45.4393"/>
<text text-anchor="middle" x="74" y="-87.9" font-family="Courier New" font-size="12.00">false</text>
</g>
<!-- ingress::process_int_report -->
<g id="node8" class="node"><title>ingress::process_int_report</title>
<ellipse fill="none" stroke="black" cx="237" cy="-91" rx="134.627" ry="18"/>
<text text-anchor="middle" x="237" y="-87.9" font-family="Courier New" font-size="12.00">ingress::process_int_report</text>
</g>
<!-- _condition_2 &#160;&#160;&#160;&#160;&#160;&#160;&#160;&#160;&#160;&#160;&#160;&#45;&gt;ingress::process_int_report -->
<g id="edge8" class="edge"><title>_condition_2 &#160;&#160;&#160;&#160;&#160;&#160;&#160;&#160;&#160;&#160;&#160;&#45;&gt;ingress::process_int_report</title>
<path fill="none" stroke="black" d="M199.738,-157.802C206.229,-146.34 214.883,-131.058 222.217,-118.106"/>
<polygon fill="black" stroke="black" points="225.392,-119.602 227.274,-109.176 219.301,-116.153 225.392,-119.602"/>
<text text-anchor="middle" x="232.5" y="-130.4" font-family="Courier New" font-size="12.00">true</text>
</g>
<!-- ingress::process_int_report&#45;&gt;exit_control_flow -->
<g id="edge9" class="edge"><title>ingress::process_int_report&#45;&gt;exit_control_flow</title>
<path fill="none" stroke="black" d="M204.88,-73.3537C185.539,-63.3304 160.747,-50.4822 140.124,-39.7942"/>
<polygon fill="black" stroke="black" points="141.465,-36.5473 130.976,-35.0535 138.244,-42.7623 141.465,-36.5473"/>
</g>
</g>
</svg>
