<?xml version="1.0" encoding="UTF-8" standalone="no"?>
<!DOCTYPE svg PUBLIC "-//W3C//DTD SVG 1.1//EN"
 "http://www.w3.org/Graphics/SVG/1.1/DTD/svg11.dtd">
<!-- Generated by graphviz version 2.38.0 (20140413.2041)
 -->
<!-- Title: G Pages: 1 -->
<svg width="343pt" height="202pt"
 viewBox="0.00 0.00 343.07 202.00" xmlns="http://www.w3.org/2000/svg" xmlns:xlink="http://www.w3.org/1999/xlink">
<g id="graph0" class="graph" transform="scale(1 1) rotate(0) translate(4 198)">
<title>G</title>
<polygon fill="white" stroke="none" points="-4,4 -4,-198 339.074,-198 339.074,4 -4,4"/>
<!-- _condition_3 &#160;&#160;&#160;&#160;&#160;&#160;&#160;&#160;&#160;&#160;&#160; -->
<g id="node1" class="node"><title>_condition_3 &#160;&#160;&#160;&#160;&#160;&#160;&#160;&#160;&#160;&#160;&#160;</title>
<ellipse fill="none" stroke="black" cx="121.271" cy="-176" rx="121.042" ry="18"/>
<text text-anchor="middle" x="121.271" y="-172.9" font-family="Courier New" font-size="12.00">_condition_3 &#160;&#160;&#160;&#160;&#160;&#160;&#160;&#160;&#160;&#160;&#160;</text>
</g>
<!-- exit_control_flow -->
<g id="node2" class="node"><title>exit_control_flow</title>
<ellipse fill="none" stroke="black" cx="119.271" cy="-18" rx="88.7893" ry="18"/>
<text text-anchor="middle" x="119.271" y="-14.9" font-family="Courier New" font-size="12.00">exit_control_flow</text>
</g>
<!-- _condition_3 &#160;&#160;&#160;&#160;&#160;&#160;&#160;&#160;&#160;&#160;&#160;&#45;&gt;exit_control_flow -->
<g id="edge1" class="edge"><title>_condition_3 &#160;&#160;&#160;&#160;&#160;&#160;&#160;&#160;&#160;&#160;&#160;&#45;&gt;exit_control_flow</title>
<path fill="none" stroke="black" d="M107.727,-157.969C98.5477,-145.285 87.2192,-127.102 82.2706,-109 78.0515,-93.5663 77.5369,-88.2837 82.2706,-73 85.448,-62.7413 91.3214,-52.6981 97.4674,-44.1092"/>
<polygon fill="black" stroke="black" points="100.332,-46.1245 103.615,-36.051 94.7666,-41.8789 100.332,-46.1245"/>
<text text-anchor="middle" x="101.271" y="-87.9" font-family="Courier New" font-size="12.00">false</text>
</g>
<!-- egress::add_metadata -->
<g id="node3" class="node"><title>egress::add_metadata</title>
<ellipse fill="none" stroke="black" cx="232.271" cy="-91" rx="102.606" ry="18"/>
<text text-anchor="middle" x="232.271" y="-87.9" font-family="Courier New" font-size="12.00">egress::add_metadata</text>
</g>
<!-- _condition_3 &#160;&#160;&#160;&#160;&#160;&#160;&#160;&#160;&#160;&#160;&#160;&#45;&gt;egress::add_metadata -->
<g id="edge2" class="edge"><title>_condition_3 &#160;&#160;&#160;&#160;&#160;&#160;&#160;&#160;&#160;&#160;&#160;&#45;&gt;egress::add_metadata</title>
<path fill="none" stroke="black" d="M143.733,-158.204C160.433,-145.716 183.409,-128.536 201.769,-114.807"/>
<polygon fill="black" stroke="black" points="203.929,-117.563 209.842,-108.771 199.737,-111.957 203.929,-117.563"/>
<text text-anchor="middle" x="198.771" y="-130.4" font-family="Courier New" font-size="12.00">true</text>
</g>
<!-- egress::add_metadata&#45;&gt;exit_control_flow -->
<g id="edge3" class="edge"><title>egress::add_metadata&#45;&gt;exit_control_flow</title>
<path fill="none" stroke="black" d="M206.062,-73.5327C190.517,-63.7651 170.627,-51.2682 153.811,-40.7025"/>
<polygon fill="black" stroke="black" points="155.666,-37.7346 145.337,-35.378 151.942,-43.6618 155.666,-37.7346"/>
</g>
</g>
</svg>
